<svg version="1.1" id="Layer_1" xmlns="http://www.w3.org/2000/svg" xmlns:xlink="http://www.w3.org/1999/xlink" x="0px" y="0px"
	 width="100%" viewBox="0 0 250 250" enable-background="new 0 0 250 250" xml:space="preserve">
<path fill="#000000" opacity="1.000000" stroke="none" 
	d="
M147.000000,251.000000 
	C99.166672,251.000000 51.833252,250.964859 4.500217,251.083298 
	C1.517210,251.090759 0.914226,250.482208 0.918007,247.499908 
	C1.020705,166.500046 1.020703,85.500000 0.918015,4.500127 
	C0.914235,1.517938 1.517758,0.914224 4.500080,0.918005 
	C85.499947,1.020706 166.499985,1.020701 247.499847,0.918020 
	C250.481995,0.914239 251.085800,1.517689 251.082016,4.500065 
	C250.979309,85.499939 250.979294,166.499985 251.081970,247.499847 
	C251.085754,250.481949 250.483871,251.096527 247.499725,251.084534 
	C214.166901,250.950607 180.833359,251.000000 147.000000,251.000000 
z"/>
<path fill="#42AF4A" opacity="1.000000" stroke="none" 
	d="
M181.181702,194.754913 
	C175.436005,199.405243 168.954941,202.466568 162.365143,205.892578 
	C156.258270,205.290390 152.104111,201.429047 147.399826,198.753281 
	C133.987854,191.124619 120.524925,183.583786 107.261116,175.695908 
	C105.083817,174.401077 103.162506,172.886810 101.567825,170.447006 
	C101.423752,169.823746 101.415894,169.562973 101.534317,168.929169 
	C108.110359,163.872574 115.371971,161.084625 123.472900,159.467361 
	C141.687057,168.347427 158.203171,179.472626 175.684784,188.893463 
	C177.984802,190.132919 180.245590,191.648788 181.181702,194.754913 
z"/>
<path fill="#42AF4A" opacity="1.000000" stroke="none" 
	d="
M164.668823,43.965286 
	C170.010849,46.602459 174.917633,49.448105 179.980255,52.614349 
	C181.838486,55.322529 182.307098,58.009174 182.308975,60.896439 
	C182.320221,78.281769 182.338638,95.667023 182.292618,113.052361 
	C182.285095,115.893936 181.945831,118.665031 180.721893,121.733063 
	C179.519196,123.607002 177.961060,124.067848 176.634857,123.196838 
	C171.437378,119.783302 166.008865,116.610504 162.163162,111.518326 
	C161.771774,111.000084 161.763306,110.276207 161.794983,109.158401 
	C161.495331,89.908173 161.686462,71.110435 161.751312,52.313763 
	C161.761215,49.440632 161.078369,46.169006 164.668823,43.965286 
z"/>
<path fill="#3A9C43" opacity="1.000000" stroke="none" 
	d="
M198.091034,184.700562 
	C195.721786,188.110291 191.780624,188.833633 188.466644,191.135666 
	C180.062622,188.758087 173.494659,183.511002 166.237930,179.586807 
	C155.751755,173.916229 145.669815,167.520370 135.259827,161.702133 
	C133.503860,160.720703 131.798416,159.685211 131.192474,157.154144 
	C132.435501,152.401367 135.967194,151.172577 140.278717,150.505493 
	C153.727402,156.767548 165.761398,164.807663 178.374359,171.822678 
	C183.450806,174.646042 188.444672,177.620087 193.409775,180.638626 
	C195.106964,181.670441 196.923477,182.548203 198.091034,184.700562 
z"/>
<path fill="#3BA848" opacity="1.000000" stroke="none" 
	d="
M101.266708,169.503448 
	C107.695854,173.357193 113.803711,176.923477 119.929680,180.458389 
	C133.135193,188.078430 146.355042,195.673630 159.548981,203.313629 
	C160.377823,203.793564 161.033752,204.572098 161.887863,205.520538 
	C160.036560,207.343231 158.507767,209.497574 155.529160,210.101746 
	C149.050781,210.359329 144.739944,206.194595 139.981293,203.433304 
	C125.756569,195.179291 111.372185,187.198944 97.272835,178.728363 
	C95.100670,177.423370 92.902321,176.180786 92.956161,172.781616 
	C94.770027,169.077011 97.394669,167.972366 101.266708,169.503448 
z"/>
<path fill="#34903F" opacity="1.000000" stroke="none" 
	d="
M198.521149,185.026688 
	C191.684662,183.582901 186.700211,179.214539 181.169846,175.978546 
	C167.861572,168.191391 154.066513,161.210892 141.177124,152.082397 
	C140.945007,146.934555 144.783859,146.573013 148.564270,145.727966 
	C168.311996,156.370865 187.182053,167.816956 206.402283,178.651138 
	C206.681915,178.808762 206.859421,179.122787 207.165848,179.754028 
	C204.802856,182.279358 201.965698,183.853256 198.521149,185.026688 
z"/>
<path fill="#10703B" opacity="1.000000" stroke="none" 
	d="
M125.421875,222.280487 
	C116.101715,221.887680 109.825470,215.658585 102.656487,211.775040 
	C86.054703,202.781616 69.956795,192.858994 53.635647,183.345627 
	C50.911694,181.757904 48.278389,180.095276 46.122635,177.295471 
	C45.870121,176.733276 45.779652,176.469238 45.925766,175.859665 
	C49.122379,174.478043 52.157784,174.806335 55.587494,175.107849 
	C57.034309,175.469894 58.149338,175.455261 59.461151,176.184418 
	C64.088112,182.578964 71.252808,184.669266 77.250328,188.314270 
	C93.812500,198.379929 111.160545,207.119965 127.399200,217.747787 
	C128.450027,218.435532 129.590469,218.435776 131.032043,218.895767 
	C131.766312,219.386856 132.043182,219.795074 132.109680,220.653564 
	C131.831253,221.304398 131.642120,221.587296 131.224548,221.992401 
	C129.311264,222.828247 127.552513,222.399033 125.421875,222.280487 
z"/>
<path fill="#3EA747" opacity="1.000000" stroke="none" 
	d="
M164.927750,43.463882 
	C164.163116,46.636829 163.968567,49.593010 163.976822,52.611317 
	C164.022766,69.406609 164.002655,86.202103 163.993820,102.997520 
	C163.992691,105.151039 164.185120,107.335213 163.079376,109.777878 
	C158.353134,111.257103 155.869720,109.036217 154.524841,104.451141 
	C153.521973,99.899323 153.665771,95.750557 153.673859,91.611725 
	C153.702316,77.033592 153.567612,62.454826 153.757339,47.877686 
	C153.797455,44.796570 153.458649,41.392277 157.698730,39.855957 
	C160.376526,40.978378 162.563965,42.074665 164.927750,43.463882 
z"/>
<path fill="#3EA747" opacity="1.000000" stroke="none" 
	d="
M131.647171,156.565796 
	C143.999344,163.909271 156.093079,170.876022 168.047943,178.073441 
	C174.711334,182.085114 182.129593,184.933151 187.934921,190.883698 
	C187.653946,191.466797 187.196838,191.745834 186.454315,192.056656 
	C184.900009,192.841171 183.445374,193.292694 182.202835,194.660355 
	C182.003647,194.909500 181.609604,195.039200 181.406570,195.082794 
	C162.726868,184.355194 144.248230,173.587357 125.783012,162.796570 
	C125.228302,162.472412 124.813881,161.908203 124.150833,161.161194 
	C124.607620,156.423233 127.506615,155.610901 131.647171,156.565796 
z"/>
<path fill="#10703B" opacity="1.000000" stroke="none" 
	d="
M43.098274,76.241692 
	C44.789764,68.662834 51.119286,65.932259 56.730068,62.636154 
	C73.513733,52.776451 90.289795,42.891808 107.321976,33.474747 
	C112.157524,30.801180 116.521469,27.010889 122.556503,25.941170 
	C125.025810,28.482161 123.038254,30.279858 121.580307,32.487099 
	C119.501724,33.848473 119.335579,36.421505 116.876480,37.362644 
	C106.921272,42.008251 97.984314,47.716579 88.777550,52.937637 
	C75.212914,60.629997 61.779186,68.550789 48.291264,76.376595 
	C46.507832,77.411354 45.012302,77.869026 43.098274,76.241692 
z"/>
<path fill="#3BA848" opacity="1.000000" stroke="none" 
	d="
M179.009216,123.375198 
	C180.976196,99.819305 179.797379,76.668839 179.937790,53.232552 
	C182.856415,53.002392 184.393677,55.404339 186.890747,56.556595 
	C188.643188,58.715080 189.254303,60.899567 189.266190,63.309273 
	C189.362122,82.750999 189.413086,102.192711 189.225143,121.634094 
	C189.210770,123.120163 189.147217,124.632103 188.187469,126.407486 
	C185.129730,129.149323 182.785049,127.465179 180.083771,125.692719 
	C179.372818,124.930840 179.125305,124.402870 179.009216,123.375198 
z"/>
<path fill="#339E45" opacity="1.000000" stroke="none" 
	d="
M93.579971,172.386383 
	C97.995102,177.978867 104.286995,180.022141 109.714233,183.291229 
	C124.592178,192.253021 140.057510,200.223206 154.882050,209.975479 
	C152.714005,212.358154 149.803543,213.816971 146.453598,215.208374 
	C139.542175,209.886414 131.907715,206.218033 124.663055,201.937576 
	C112.805321,194.931473 100.786972,188.199463 88.896065,181.250122 
	C86.410027,179.797226 83.370537,178.396011 84.292824,174.120789 
	C87.029900,171.254044 89.846436,170.061005 93.579971,172.386383 
z"/>
<path fill="#2D8139" opacity="1.000000" stroke="none" 
	d="
M207.573395,179.935089 
	C200.688538,179.947586 196.196167,175.191299 190.917435,172.312561 
	C177.988617,165.261917 165.360809,157.659668 152.600128,150.299744 
	C151.287460,149.542648 150.070816,148.722794 149.115707,147.078552 
	C148.886246,142.599167 151.633850,141.671829 155.429550,141.577301 
	C169.761627,148.929504 183.136505,157.201920 196.731949,165.086639 
	C201.861938,168.061768 207.556122,170.157852 211.999420,174.827408 
	C210.598465,176.583862 210.192642,179.076538 207.573395,179.935089 
z"/>
<path fill="#10703B" opacity="1.000000" stroke="none" 
	d="
M216.219696,164.702759 
	C215.978668,165.928162 214.982315,166.626755 215.843094,167.731873 
	C212.213425,169.416138 211.459412,166.584290 210.315353,163.779236 
	C210.064209,160.703644 207.147278,158.690674 208.604080,155.247910 
	C209.347733,139.542282 208.867355,124.283432 208.986816,109.028122 
	C209.060883,99.568031 208.998322,90.106926 209.001862,80.646278 
	C209.002808,78.072395 209.052185,75.544998 212.745956,74.809357 
	C214.903259,76.321259 214.951981,78.507629 215.795502,80.712006 
	C215.790787,81.223755 215.695129,81.401741 215.783875,81.820267 
	C215.968307,82.060791 216.057037,82.470329 216.034271,82.678604 
	C216.729202,83.940422 216.491211,85.140274 216.490158,86.286484 
	C216.466156,112.277481 216.573807,138.268570 216.219696,164.702759 
z"/>
<path fill="#1D843D" opacity="1.000000" stroke="none" 
	d="
M132.355072,221.133209 
	C131.858566,220.737534 131.656418,220.486008 131.222839,220.117035 
	C110.024529,207.158020 88.464439,195.299484 67.253059,182.841888 
	C65.360779,181.730560 62.689949,181.096466 63.043365,177.602905 
	C63.296211,176.984222 63.442101,176.753113 63.911125,176.261337 
	C66.671646,175.298019 69.131378,174.771149 72.083054,175.157959 
	C81.672531,183.334579 92.980232,188.011658 103.289490,194.288696 
	C115.472107,201.706421 128.069962,208.435242 140.324219,216.400269 
	C140.679565,217.226242 140.652573,217.719711 140.231903,218.521637 
	C137.494949,219.391403 136.151779,223.547455 132.355072,221.133209 
z"/>
<path fill="#3B9F44" opacity="1.000000" stroke="none" 
	d="
M158.015625,39.574150 
	C155.926056,42.496433 155.997818,45.676201 155.997162,48.848152 
	C155.993408,67.294434 155.980133,85.740715 155.958862,104.664429 
	C151.268616,106.168549 149.187576,104.933716 147.159561,99.428139 
	C148.229568,81.387764 147.358139,63.795532 147.722565,46.215908 
	C147.796249,42.660362 146.792099,38.875183 149.618439,35.349636 
	C152.617493,36.469410 155.229843,37.867813 158.015625,39.574150 
z"/>
<path fill="#2D8139" opacity="1.000000" stroke="none" 
	d="
M41.281059,169.257019 
	C40.707352,168.255966 40.425510,167.505951 40.050678,166.459473 
	C40.026810,164.885071 39.944504,163.600082 40.279594,161.970657 
	C52.713608,153.480438 65.781311,146.663757 78.477806,139.218369 
	C82.333481,136.957352 86.098686,134.530563 90.066536,132.469254 
	C92.402184,131.255859 94.812080,129.847122 97.757477,132.008728 
	C98.786644,134.450333 98.446373,136.641510 98.299263,139.211243 
	C93.952316,144.212936 87.862457,145.867630 82.740654,149.098587 
	C71.556892,156.153564 59.813885,162.276382 48.467964,169.070816 
	C46.250919,170.398483 43.997181,171.351517 41.281059,169.257019 
z"/>
<path fill="#379741" opacity="1.000000" stroke="none" 
	d="
M149.710632,34.937794 
	C150.003403,54.388134 150.019424,73.705292 149.976059,93.022324 
	C149.970993,95.281288 150.598557,97.757439 148.189133,99.816162 
	C143.318542,101.336395 142.131348,100.671242 140.683624,95.486359 
	C142.481644,93.203819 141.975906,90.948563 141.980743,88.833702 
	C142.018021,72.529213 142.000763,56.224598 141.998398,39.920025 
	C141.997971,36.987858 142.075378,34.133690 146.187744,33.243004 
	C147.582413,33.768082 148.499283,34.286331 149.710632,34.937794 
z"/>
<path fill="#297735" opacity="1.000000" stroke="none" 
	d="
M40.936478,169.368439 
	C43.827053,169.236679 46.026913,167.823822 48.371822,166.457779 
	C63.173149,157.835297 78.037560,149.320770 92.916969,140.833405 
	C93.876083,140.286331 95.134453,140.263855 96.639313,139.988831 
	C97.797775,139.859818 98.526817,139.968323 99.461082,140.673431 
	C99.993904,141.403091 100.169380,141.887207 100.273186,142.795990 
	C100.256554,144.279694 99.603867,145.129364 98.938263,146.367859 
	C83.611580,155.741714 68.309265,164.458435 53.016815,173.194366 
	C50.928879,174.387115 48.754818,174.895813 46.272469,175.765305 
	C45.996704,176.003815 45.978931,176.500793 45.969757,176.749054 
	C42.904484,175.528046 41.978024,172.570847 40.936478,169.368439 
z"/>
<path fill="#297735" opacity="1.000000" stroke="none" 
	d="
M212.150146,175.130356 
	C206.928696,174.621307 203.041519,171.136459 198.736740,168.745560 
	C185.644318,161.473953 172.782440,153.786453 159.858627,146.213364 
	C158.584824,145.466934 157.502594,144.393600 156.148529,143.182068 
	C154.706863,139.306992 157.211197,138.592682 160.161560,137.929977 
	C176.162704,145.240112 190.387787,154.990433 205.508026,163.142731 
	C208.741684,164.886215 211.509003,167.221970 214.610138,169.733383 
	C214.467010,170.913864 214.084885,171.815155 213.477325,172.909821 
	C212.604721,173.374557 212.518219,173.987106 212.223022,174.824585 
	C212.080322,175.089691 212.147079,175.096924 212.150146,175.130356 
z"/>
<path fill="#2A9442" opacity="1.000000" stroke="none" 
	d="
M140.346130,218.775101 
	C140.014618,218.431213 140.008591,218.022491 140.000977,217.307190 
	C139.315536,214.597412 137.006546,213.956284 135.232773,212.929749 
	C117.120575,202.447617 99.096352,191.812881 80.895744,181.484238 
	C78.429817,180.084869 76.165939,178.749756 77.827408,175.028320 
	C80.080574,173.200562 82.155945,172.584167 84.687119,174.553101 
	C87.641022,179.245178 92.450592,180.733063 96.481598,183.115845 
	C112.182549,192.396896 128.062195,201.375977 143.895325,210.432526 
	C145.584427,211.398712 147.141113,212.284653 146.167603,214.953506 
	C144.902496,217.394638 142.439926,217.503510 140.346130,218.775101 
z"/>
<path fill="#246D31" opacity="1.000000" stroke="none" 
	d="
M119.915794,32.458092 
	C120.934639,30.210575 121.879395,28.432121 122.877312,26.317631 
	C123.114853,25.966248 123.299240,25.950901 123.761154,25.932556 
	C124.951828,25.390680 125.921730,25.489855 127.303062,25.956917 
	C128.799072,27.414635 129.023392,28.838449 129.018326,30.386034 
	C128.957443,48.967312 129.060120,67.548790 128.955475,86.130051 
	C128.951706,86.799782 128.787308,87.442894 128.253845,88.488419 
	C124.368767,91.468842 121.567818,90.305847 119.084869,86.538254 
	C118.477982,71.800003 118.769417,57.535149 118.664459,43.272793 
	C118.638641,39.765266 118.903778,36.313828 119.915794,32.458092 
z"/>
<path fill="#36A246" opacity="1.000000" stroke="none" 
	d="
M185.624069,127.593933 
	C187.537872,125.181557 186.974365,122.750702 186.979492,120.484962 
	C187.026794,99.591026 187.025146,78.696991 187.054077,57.324669 
	C188.889786,57.150139 190.510071,57.841286 191.904968,59.563393 
	C193.376587,61.458191 194.018707,63.234814 194.015381,65.352966 
	C193.982864,86.110413 194.018997,106.867935 193.982162,127.625435 
	C193.980072,128.800751 193.869843,129.949692 192.879929,131.340317 
	C188.510513,133.790161 186.589279,131.767685 185.624069,127.593933 
z"/>
<path fill="#13783A" opacity="1.000000" stroke="none" 
	d="
M213.064789,74.568886 
	C210.530350,76.436432 211.012115,79.095131 211.010086,81.543015 
	C210.991653,103.824211 211.005264,126.105438 210.989365,148.386642 
	C210.987717,150.700699 211.267410,153.056396 210.137100,155.667358 
	C209.126648,156.512253 208.310287,156.334579 207.161591,155.658539 
	C205.725250,153.943863 204.610168,152.515137 204.728302,150.100555 
	C205.267166,135.000916 204.902588,120.361290 204.988205,105.723656 
	C205.049545,95.236870 204.980789,84.749397 205.016998,74.262375 
	C205.023743,72.308701 204.594254,70.213707 206.645508,68.314774 
	C209.855240,69.299339 211.306961,71.852684 213.064789,74.568886 
z"/>
<path fill="#1D843D" opacity="1.000000" stroke="none" 
	d="
M206.779846,67.947227 
	C207.025070,93.138680 207.018372,118.249382 206.991119,143.360062 
	C206.988602,145.674561 207.268723,148.029846 206.158325,150.644485 
	C204.762177,151.539062 203.839050,150.961517 202.736588,149.803284 
	C201.511154,147.969666 200.264771,146.587418 200.902740,144.137329 
	C202.059509,119.941475 201.212601,96.180420 201.531296,72.427414 
	C201.562134,70.128502 200.597931,67.149475 204.794098,66.708893 
	C205.672424,67.213348 206.097366,67.539909 206.779846,67.947227 
z"/>
<path fill="#2D8139" opacity="1.000000" stroke="none" 
	d="
M131.644775,26.416401 
	C133.795395,25.595621 134.988464,27.261414 136.828430,27.632774 
	C137.975327,29.562706 138.058456,31.355772 138.047852,33.206760 
	C137.946152,50.941628 138.034348,68.676811 137.984604,86.411789 
	C137.978226,88.684601 138.467117,91.124290 136.023621,93.244133 
	C133.391891,94.489319 131.604019,93.853302 129.955963,91.544708 
	C129.322159,89.141075 128.981491,87.205093 128.984650,85.193893 
	C129.011658,67.976814 129.016678,50.759628 128.982513,33.542576 
	C128.977402,30.973173 129.215500,28.575323 131.644775,26.416401 
z"/>
<path fill="#339E45" opacity="1.000000" stroke="none" 
	d="
M190.789047,132.679718 
	C192.109482,129.903366 192.001328,127.407234 192.001785,124.920387 
	C192.005630,103.555412 192.017471,82.190437 192.039093,60.348278 
	C193.993668,60.681911 195.936081,61.492729 198.052307,62.615433 
	C197.704636,84.871773 198.154404,106.819595 197.988129,128.765182 
	C197.970566,131.083450 198.260620,133.423615 197.423874,136.142029 
	C192.967255,138.509750 192.008453,138.008621 190.789047,132.679718 
z"/>
<path fill="#2A9442" opacity="1.000000" stroke="none" 
	d="
M195.755295,137.777344 
	C195.931137,114.609795 195.944046,91.902496 196.030441,69.195480 
	C196.038193,67.155968 195.245926,64.798492 197.856018,63.091576 
	C198.650085,63.253403 199.074036,63.579487 199.749649,64.002670 
	C201.447601,65.909882 201.519394,68.028572 201.516571,70.224907 
	C201.489044,91.625023 201.506607,113.025208 201.488937,134.425339 
	C201.487320,136.379074 201.871552,138.472702 199.612396,140.206741 
	C197.249161,140.918869 196.056885,140.182220 195.755295,137.777344 
z"/>
<path fill="#1D843D" opacity="1.000000" stroke="none" 
	d="
M39.794640,82.170959 
	C39.967747,81.492615 40.091682,81.223686 40.599625,80.947678 
	C44.994484,77.576721 49.848900,75.416969 54.401302,72.758804 
	C71.709686,62.652351 89.164833,52.798840 106.422012,42.602619 
	C108.328400,41.476242 110.338120,39.809536 113.147758,41.607601 
	C114.595306,44.605007 113.379082,46.685486 111.294205,48.837700 
	C102.775032,52.280880 95.566383,57.317245 87.977028,61.618793 
	C73.875954,69.611115 59.923767,77.869324 45.811810,85.847176 
	C43.933575,86.908989 42.042038,88.182198 39.736111,85.983948 
	C39.480389,84.592911 39.471481,83.547791 39.794640,82.170959 
z"/>
<path fill="#246D31" opacity="1.000000" stroke="none" 
	d="
M214.986847,169.754883 
	C212.956802,170.099762 211.348633,169.453278 209.702927,168.492264 
	C194.507248,159.618652 179.265671,150.823608 164.030487,142.017700 
	C162.877914,141.351532 161.629318,140.825027 161.045517,139.083374 
	C160.608170,136.864548 161.729370,135.957336 163.603195,135.243164 
	C172.343277,137.271469 179.007156,142.704575 186.369568,146.746536 
	C192.021744,149.849564 197.538193,153.220108 203.182541,156.344650 
	C206.254349,158.045135 209.044525,160.007645 211.735352,162.758560 
	C213.025406,164.643875 213.332550,166.779526 215.584717,167.885864 
	C215.634735,168.488419 215.379654,168.992813 214.986847,169.754883 
z"/>
<path fill="#13783A" opacity="1.000000" stroke="none" 
	d="
M113.334366,42.026527 
	C105.782921,43.174263 100.525673,48.150284 94.501724,51.488274 
	C78.406303,60.407059 62.619137,69.881798 46.695465,79.111427 
	C45.121380,80.023788 43.500515,80.913315 41.199940,80.879089 
	C40.876587,80.446777 40.936729,80.029991 41.025635,79.297821 
	C41.295681,78.761505 41.507286,78.515091 41.811943,78.032257 
	C41.934662,77.821320 42.024399,77.396355 42.070576,77.184158 
	C42.261639,76.797745 42.406521,76.623520 42.760075,76.181000 
	C42.968742,75.912704 42.944935,75.967491 42.926273,75.942993 
	C49.298645,75.720345 53.690594,71.114166 58.776306,68.300377 
	C77.173431,58.121735 95.246948,47.358307 113.452332,36.832432 
	C114.016441,36.506283 114.687416,36.364948 115.659027,36.071041 
	C117.162575,37.046894 117.110527,38.304729 116.460892,39.975048 
	C115.609039,41.172504 114.805260,41.807976 113.334366,42.026527 
z"/>
<path fill="#318C3C" opacity="1.000000" stroke="none" 
	d="
M134.984726,93.676270 
	C136.127426,90.893585 136.005890,88.388336 136.005081,85.895287 
	C135.999603,68.955421 135.997665,52.015560 136.008438,35.075706 
	C136.009796,32.926163 135.800613,30.744230 136.877731,28.300823 
	C139.187149,27.526464 139.876694,30.040009 141.901917,30.543621 
	C143.467102,33.937500 141.883255,37.011524 141.917480,40.121887 
	C142.094482,56.197735 142.015076,72.276634 141.982620,88.354393 
	C141.978348,90.466522 142.432861,92.710793 140.425690,94.834587 
	C138.058441,96.471130 136.418762,96.024170 134.984726,93.676270 
z"/>
<path fill="#34903F" opacity="1.000000" stroke="none" 
	d="
M138.972504,95.522552 
	C140.144989,92.859589 140.003326,90.353889 140.002869,87.865509 
	C139.999771,71.440796 140.011490,55.016068 139.991364,38.591373 
	C139.988297,36.080112 139.932480,33.589684 141.885223,31.170227 
	C143.682724,31.017569 145.061600,31.690298 146.470230,32.988861 
	C144.189911,35.461571 143.970047,38.361805 143.979111,41.435104 
	C144.027496,57.831692 144.023712,74.228577 143.970657,90.625137 
	C143.964157,92.632668 144.717636,95.149513 141.277527,95.982117 
	C140.204269,96.571907 139.587708,96.454460 138.972504,95.522552 
z"/>
<path fill="#297735" opacity="1.000000" stroke="none" 
	d="
M131.745331,26.031118 
	C129.775070,47.443260 131.631683,68.870911 130.921219,90.738335 
	C129.121948,92.305824 127.872520,91.645332 126.913025,89.609421 
	C126.936623,68.470848 126.965675,47.734478 126.994415,26.533806 
	C127.943390,25.176262 129.103424,25.590015 130.571289,25.732845 
	C131.128693,25.933985 131.305756,25.956320 131.745331,26.031118 
z"/>
<path fill="#238C40" opacity="1.000000" stroke="none" 
	d="
M197.714447,140.422470 
	C200.560059,138.435776 199.979324,135.755432 199.982376,133.329376 
	C200.010956,110.560753 200.001282,87.792084 200.001984,64.561600 
	C201.635773,64.829498 203.270233,65.559235 205.076080,66.587875 
	C202.246735,68.024040 203.033646,70.655807 203.029083,72.845314 
	C202.983536,94.717010 203.009628,116.588860 202.986710,138.460632 
	C202.984634,140.427780 203.320511,142.448883 202.177002,144.679474 
	C198.652924,145.506302 197.660873,143.605972 197.714447,140.422470 
z"/>
<path fill="#DEE3DF" opacity="1.000000" stroke="none" 
	d="
M39.616600,82.051071 
	C40.054230,82.948219 40.097469,84.057838 40.219967,85.577179 
	C40.999329,86.923958 41.774235,87.826355 41.766342,89.537025 
	C42.037525,91.692963 42.022747,93.418175 41.878960,95.574829 
	C42.081615,97.998802 42.136490,99.992813 41.872158,102.412430 
	C42.316422,105.662796 42.064468,108.527672 42.439514,111.785782 
	C42.367401,118.853409 42.034550,125.493797 42.659004,132.565247 
	C43.243881,135.647369 43.277378,138.303391 42.888153,141.415436 
	C43.032486,143.949478 43.252617,146.035690 42.983627,148.582123 
	C43.060150,150.868973 43.117699,152.702606 42.981544,155.005890 
	C43.049938,157.701904 43.366749,159.998291 40.795704,161.725250 
	C40.281132,163.046188 40.234474,164.259018 40.072754,165.817413 
	C38.951317,165.811432 38.991272,164.960800 38.993568,164.132324 
	C39.069248,136.842728 39.145790,109.553139 39.616600,82.051071 
z"/>
<path fill="#DEE3DF" opacity="1.000000" stroke="none" 
	d="
M216.389877,164.936432 
	C215.966721,138.041962 215.938080,110.937874 215.960464,83.360336 
	C217.049744,83.203072 216.998001,84.063080 216.995880,84.885651 
	C216.926941,111.499382 216.855484,138.113098 216.389877,164.936432 
z"/>
<path fill="#DEE3DF" opacity="1.000000" stroke="none" 
	d="
M130.786270,25.559433 
	C129.888779,25.894117 128.825928,25.876583 127.378593,25.964279 
	C126.256531,26.029766 125.518951,25.990025 124.410027,25.939920 
	C126.066002,24.169258 128.431351,25.489176 130.786270,25.559433 
z"/>
<path fill="#42AF4A" opacity="1.000000" stroke="none" 
	d="
M182.332458,194.870697 
	C182.455902,193.099533 183.833038,192.450256 185.824402,192.113953 
	C185.630997,193.810089 183.842300,193.932541 182.332458,194.870697 
z"/>
<path fill="#DEE3DF" opacity="1.000000" stroke="none" 
	d="
M125.164787,222.470459 
	C126.728020,222.072449 128.437042,222.032928 130.571075,222.054001 
	C129.300446,223.940689 127.226448,222.755524 125.164787,222.470459 
z"/>
<path fill="#2D8139" opacity="1.000000" stroke="none" 
	d="
M212.359863,174.954086 
	C212.304703,174.541611 212.529083,173.993530 213.002686,173.274323 
	C213.047729,173.674957 212.843567,174.246719 212.359863,174.954086 
z"/>
<path fill="#238C40" opacity="1.000000" stroke="none" 
	d="
M215.982849,81.804214 
	C215.665070,81.856895 215.571655,81.597130 215.787262,81.163628 
	C215.923401,81.213066 215.960388,81.380348 215.982849,81.804214 
z"/>
<path fill="#10703B" opacity="1.000000" stroke="none" 
	d="
M41.692619,77.933167 
	C41.801228,78.122459 41.623875,78.395027 41.228508,78.810730 
	C41.186462,78.669960 41.318520,78.357491 41.692619,77.933167 
z"/>
<path fill="#10703B" opacity="1.000000" stroke="none" 
	d="
M42.736088,76.006027 
	C42.832108,76.187370 42.658558,76.436295 42.282425,76.815720 
	C42.245647,76.681091 42.374542,76.390221 42.736088,76.006027 
z"/>
<path fill="#000000" opacity="1.000000" stroke="none" 
	d="
M126.556534,89.121002 
	C128.025681,89.825218 129.143784,90.443222 130.581573,91.140839 
	C132.022766,91.830246 133.144257,92.440048 134.587051,93.125336 
	C136.032898,93.811935 137.157455,94.423042 138.607056,95.101349 
	C139.391174,95.441612 139.850235,95.714668 140.594223,96.016701 
	C142.794907,97.651726 144.685333,99.297958 147.516418,100.028946 
	C150.324997,101.713409 152.782608,103.377716 155.593933,105.091949 
	C157.571396,107.385056 160.156738,108.321030 162.618103,110.002075 
	C167.680374,114.864662 173.918640,117.769951 178.667755,122.915222 
	C179.326279,122.994804 179.576263,123.156082 179.746521,123.648041 
	C179.795181,128.143997 176.592194,129.784531 173.303040,131.800140 
	C172.025711,133.000290 170.847290,133.794922 169.695877,135.149078 
	C167.978546,136.560196 166.281647,136.569305 164.290680,136.181915 
	C163.132751,136.709839 162.238510,137.493393 161.142029,138.509583 
	C159.286774,139.881607 157.633759,141.020981 155.973175,142.526260 
	C153.075531,142.640381 151.341690,144.726273 149.121124,146.480713 
	C146.392456,148.259995 143.842392,149.747711 141.123352,151.528137 
	C137.668518,152.507401 135.193237,154.756912 132.154007,156.566101 
	C129.422104,157.993607 126.880569,159.141098 124.153320,160.577515 
	C116.920090,163.521683 109.872566,166.176895 102.454720,168.759552 
	C98.935768,167.202240 98.915657,164.423477 99.060715,161.152679 
	C98.341843,159.258469 98.485229,157.670212 98.444511,155.714874 
	C98.356400,154.820160 98.301620,154.309418 98.267769,153.414551 
	C98.279846,152.261810 98.225471,151.498001 97.951584,150.368439 
	C97.092804,147.823822 98.800690,145.934647 98.707314,143.465820 
	C98.901527,142.622299 98.938248,142.140839 98.904457,141.303024 
	C96.294327,138.553696 98.027901,135.452194 97.376106,132.295807 
	C96.659019,130.826218 95.982422,129.817139 95.709969,128.141556 
	C97.020844,121.695847 96.318054,115.617111 96.500481,109.135651 
	C96.502327,107.533875 96.500793,106.375076 96.538757,104.795692 
	C96.862579,102.722054 96.514107,101.086830 96.422424,99.024918 
	C97.696594,93.183754 97.691307,87.553940 99.279877,81.779755 
	C100.072968,80.094582 101.144348,79.299049 102.831497,78.686165 
	C103.473038,78.584549 103.729790,78.562164 104.368622,78.518036 
	C105.254349,78.458694 105.754898,78.483002 106.611267,78.645340 
	C107.421005,78.881271 107.870880,79.045868 108.638916,79.357025 
	C110.790176,81.519722 113.610649,80.893486 116.086166,82.167435 
	C118.119812,82.739510 119.363930,83.656647 119.739059,85.873268 
	C121.559784,88.056717 124.122978,88.004913 126.556534,89.121002 
z"/>
<path fill="#175027" opacity="1.000000" stroke="none" 
	d="
M100.505112,159.725647 
	C101.217102,162.621384 101.624733,165.261246 102.058380,168.294037 
	C101.989677,168.868591 101.894966,169.050201 101.690018,169.518478 
	C99.194664,170.637466 96.809547,171.469788 94.155792,172.509003 
	C91.121208,173.312592 88.355270,173.909286 85.276215,174.700378 
	C82.900261,175.224121 80.837433,175.553436 78.397156,175.978027 
	C77.364426,176.585495 76.633919,176.840622 75.424950,176.572998 
	C73.344833,174.245834 74.569962,172.527283 76.236366,171.350967 
	C82.754997,166.749496 89.981895,163.327560 96.851463,159.305618 
	C97.880363,158.703232 99.109802,158.863098 100.505112,159.725647 
z"/>
<path fill="#246D31" opacity="1.000000" stroke="none" 
	d="
M99.247604,149.459885 
	C99.638565,150.508926 99.775894,151.322556 99.864113,152.553894 
	C88.252609,158.240173 77.758041,165.425964 66.629807,171.475800 
	C63.310776,173.280197 60.086918,175.251190 56.246849,176.758301 
	C52.903030,176.967926 49.786556,177.249435 46.396324,176.081482 
	C47.092876,172.981873 50.112343,172.241241 52.451256,170.866623 
	C65.494888,163.200577 78.641823,155.710083 91.766037,148.181519 
	C93.494034,147.190262 95.235703,146.173370 97.681664,146.012726 
	C98.885429,146.921021 98.140335,148.304108 99.247604,149.459885 
z"/>
<path fill="#1F642E" opacity="1.000000" stroke="none" 
	d="
M56.316910,177.021179 
	C56.392376,174.261368 58.791054,173.378281 60.716698,172.251129 
	C71.591400,165.885757 82.555092,159.672546 93.446075,153.334671 
	C95.341156,152.231857 97.151382,152.042038 99.473190,152.902527 
	C99.840942,153.422089 99.866882,153.872604 99.848328,154.659271 
	C98.905861,157.177399 97.565674,158.838074 95.371353,160.003860 
	C85.063911,165.479935 75.553955,172.439957 64.264336,176.817688 
	C64.015129,177.080444 64.013611,177.536179 64.007782,177.763977 
	C62.717892,179.216599 61.295204,179.350281 59.377678,178.257751 
	C58.216991,177.669006 57.430164,177.354294 56.316910,177.021179 
z"/>
<path fill="#13783A" opacity="1.000000" stroke="none" 
	d="
M59.103832,178.308014 
	C60.392097,177.984512 61.780380,177.985306 63.585304,177.988922 
	C66.103271,182.249756 70.598648,183.393524 74.219124,185.499146 
	C91.578758,195.595291 109.103233,205.407669 126.526535,215.395187 
	C128.197220,216.352875 130.171951,217.170303 130.945557,219.636139 
	C124.403419,219.286438 119.849586,214.418961 114.419388,211.435577 
	C97.360191,202.063171 80.622726,192.105011 63.765507,182.365311 
	C62.046246,181.371948 60.196609,180.520981 59.103832,178.308014 
z"/>
<path fill="#1F642E" opacity="1.000000" stroke="none" 
	d="
M120.017838,85.810013 
	C118.810852,85.313461 117.925751,84.110229 116.067459,84.389496 
	C114.363579,81.763351 113.941803,79.097198 113.947403,76.188248 
	C113.964661,67.224831 114.274132,58.256222 113.740768,49.295769 
	C113.570992,46.443455 114.197350,43.682640 114.898994,40.446281 
	C115.273766,38.868267 115.578735,37.772270 115.946609,36.340454 
	C117.159470,34.783466 118.309441,33.562298 119.724648,32.165081 
	C120.864769,33.100578 120.992935,34.407314 120.992470,35.755177 
	C120.987183,51.018913 121.004852,66.282715 120.949348,81.546265 
	C120.944656,82.836143 120.457184,84.124268 120.017838,85.810013 
z"/>
<path fill="#175027" opacity="1.000000" stroke="none" 
	d="
M171.743408,131.063629 
	C173.856750,128.018585 177.394440,126.986855 179.387619,123.909355 
	C182.035568,123.910156 183.484634,125.540512 185.428101,126.945786 
	C187.267899,128.696609 188.827499,130.271851 190.666168,132.032959 
	C191.955872,134.214462 193.150146,136.043610 195.595444,137.165039 
	C196.398209,138.118484 196.897995,138.919968 197.637787,139.888031 
	C199.057816,141.588882 200.237839,143.123154 201.680145,144.840302 
	C202.527817,146.160370 203.113235,147.297546 203.858856,148.717529 
	C202.768570,150.591736 201.225372,150.583572 199.607162,149.717346 
	C190.602768,144.897278 181.900925,139.555679 173.137009,134.321167 
	C172.034119,133.662430 171.535065,132.709793 171.743408,131.063629 
z"/>
<path fill="#1F642E" opacity="1.000000" stroke="none" 
	d="
M164.103424,136.182404 
	C165.820114,136.117233 166.634171,134.149246 168.615921,133.959198 
	C170.254517,133.858170 171.529495,133.374634 172.822800,134.180557 
	C184.181519,141.258667 196.200882,147.217606 207.698227,154.786850 
	C208.493179,155.263809 208.987259,155.526382 209.727661,155.922028 
	C209.885376,158.350616 211.317612,160.186661 211.925568,162.649536 
	C206.178009,161.801239 201.661911,157.969711 196.649750,155.209198 
	C185.701462,149.179230 174.988770,142.721497 164.103424,136.182404 
z"/>
<path fill="#238C40" opacity="1.000000" stroke="none" 
	d="
M74.692261,175.864746 
	C75.751740,176.016403 76.507805,176.021866 77.641792,176.050323 
	C81.240227,181.316849 87.067413,182.967438 91.908829,185.854156 
	C108.259071,195.603058 124.802338,205.028244 141.271820,214.577148 
	C144.256943,216.307892 141.610397,216.364914 140.290131,216.951584 
	C133.263885,214.437195 127.469391,210.171509 121.269699,206.639709 
	C106.952805,198.483780 92.630486,190.337112 78.352821,182.112976 
	C76.386192,180.980179 74.069061,180.114990 73.081078,177.348175 
	C73.197357,176.295044 73.682991,175.889084 74.692261,175.864746 
z"/>
<path fill="#1C5B2B" opacity="1.000000" stroke="none" 
	d="
M75.096588,175.688293 
	C74.500961,176.267731 74.006241,176.524506 73.257851,176.897491 
	C70.306801,177.025452 67.609421,177.037231 64.463585,177.064728 
	C66.621773,172.055450 72.162636,171.117798 76.389977,168.429474 
	C83.794472,163.720688 91.568680,159.593307 99.495918,155.108887 
	C100.160805,156.413254 100.517761,157.831070 100.842102,159.615219 
	C91.931213,164.541962 82.763390,168.620331 75.096588,175.688293 
z"/>
<path fill="#318C3C" opacity="1.000000" stroke="none" 
	d="
M97.704155,127.594398 
	C97.895805,129.009979 97.930229,130.087708 97.945984,131.569855 
	C97.757988,132.209717 97.588646,132.445160 97.127899,132.357605 
	C87.138962,135.765976 78.825111,142.027206 69.749023,146.899826 
	C62.421978,150.833450 55.367165,155.271423 48.134968,159.386139 
	C45.987907,160.607712 43.825283,161.991104 40.748032,161.856796 
	C40.276577,159.785080 40.225368,157.736786 40.248894,155.251450 
	C56.998936,144.980713 73.961784,135.643341 90.576393,125.703644 
	C92.247864,124.703682 93.991432,123.546448 96.500175,124.285248 
	C97.684189,125.232689 97.434662,126.290352 97.704155,127.594398 
z"/>
<path fill="#42AF4A" opacity="1.000000" stroke="none" 
	d="
M96.839058,132.475555 
	C97.017761,132.013916 97.199028,131.993240 97.653809,131.973419 
	C98.675606,134.671463 97.254784,137.536545 98.698593,140.568512 
	C98.350151,140.754501 97.866341,140.562317 97.203781,140.175232 
	C96.963898,137.625717 96.902763,135.271103 96.839058,132.475555 
z"/>
<path fill="#DEE3DF" opacity="1.000000" stroke="none" 
	d="
M99.182335,149.477325 
	C100.801773,148.011154 98.885078,147.513138 98.193504,146.253296 
	C98.135704,145.132416 98.212700,144.271973 98.577255,143.257660 
	C98.864357,145.155624 98.863899,147.207504 99.182335,149.477325 
z"/>
<path fill="#1C5B2B" opacity="1.000000" stroke="none" 
	d="
M207.864380,154.713104 
	C201.368042,153.903091 196.360153,149.509811 190.719955,146.422607 
	C183.582291,142.515793 176.557434,138.402832 169.221222,134.148254 
	C169.774734,132.987488 170.590927,132.057236 171.633606,130.908752 
	C174.517624,134.608002 179.016434,135.892410 182.804138,138.104797 
	C189.466492,141.996292 195.604431,146.934708 203.642761,148.976471 
	C204.535416,149.552444 205.051758,150.104568 205.783234,150.844116 
	C206.575470,152.162659 207.152573,153.293823 207.864380,154.713104 
z"/>
<path fill="#238C40" opacity="1.000000" stroke="none" 
	d="
M40.549080,90.259857 
	C40.245422,88.916939 40.190048,87.846756 40.216949,86.381737 
	C48.278591,83.443344 54.831078,78.228569 62.020561,74.229103 
	C75.754196,66.589172 89.225578,58.478653 102.841957,50.626133 
	C104.830833,49.479156 106.845436,48.241615 109.619766,48.024597 
	C110.175011,48.192261 110.356880,48.382645 110.701614,48.933640 
	C110.768478,51.704342 110.634239,54.099213 107.994171,55.807571 
	C101.373184,57.756035 96.312675,61.869148 90.780243,65.004410 
	C76.377846,73.166336 62.091381,81.538368 47.689213,89.705154 
	C45.576447,90.903198 43.352360,92.442368 40.549080,90.259857 
z"/>
<path fill="#1C5B2B" opacity="1.000000" stroke="none" 
	d="
M110.112251,49.464760 
	C110.047615,48.877415 110.035576,48.702366 110.008331,48.264599 
	C110.886490,46.211983 111.779839,44.422092 112.808334,42.324692 
	C113.455757,41.438797 113.968040,40.860409 114.724564,40.123146 
	C116.098862,41.367470 116.000443,43.041786 115.997231,44.688637 
	C115.972145,57.550808 115.941208,70.412964 115.884926,83.761749 
	C113.386986,83.168762 110.436806,83.472496 108.030167,81.334015 
	C109.905495,76.943939 109.816345,72.506287 109.703880,68.077103 
	C109.549606,62.001362 109.922104,55.941395 110.112251,49.464760 
z"/>
<path fill="#42AF4A" opacity="1.000000" stroke="none" 
	d="
M100.968849,80.798691 
	C100.322182,86.883049 99.636932,92.576271 98.899399,98.703583 
	C98.256729,100.464821 98.657234,102.093758 97.342148,103.553635 
	C91.086327,109.492767 83.374344,112.442497 76.499275,116.724594 
	C67.772209,122.160187 58.744987,127.090073 49.755291,132.072479 
	C47.112476,133.537216 44.343510,135.781219 40.692223,133.163315 
	C40.268925,126.311630 40.212246,119.545601 40.235565,112.378136 
	C42.146763,109.375565 44.571651,107.518936 47.340515,105.965096 
	C62.553776,97.427551 77.419464,88.280624 92.793663,80.023109 
	C94.876770,78.904266 96.925323,77.797592 99.732864,78.926346 
	C100.477448,79.469757 100.763100,79.899223 100.968849,80.798691 
z"/>
<path fill="#3BA848" opacity="1.000000" stroke="none" 
	d="
M100.234299,79.913361 
	C92.920738,81.189659 87.582703,85.592278 81.716393,88.881615 
	C68.146172,96.490669 54.640629,104.215080 40.712212,111.934708 
	C40.260181,109.259857 40.204800,106.542999 40.228706,103.406815 
	C41.686161,101.112236 43.136768,99.434563 45.292782,98.250923 
	C62.480148,88.815186 79.176956,78.520081 96.319771,69.002747 
	C98.488831,67.798523 100.533112,66.141838 103.511642,67.878113 
	C105.129807,71.164169 104.097206,74.152756 103.547043,77.512230 
	C102.686020,78.866379 101.663712,79.346504 100.234299,79.913361 
z"/>
<path fill="#3EA747" opacity="1.000000" stroke="none" 
	d="
M40.253677,133.518646 
	C47.445335,132.358948 52.729305,127.604103 58.650570,124.412964 
	C70.053040,118.267822 81.074265,111.416870 92.288712,104.919250 
	C93.709244,104.096199 95.340897,103.637512 97.269173,102.938950 
	C97.664131,103.119865 97.664665,103.371849 97.595215,103.995438 
	C97.486214,105.376488 97.504356,106.386406 97.499886,107.775871 
	C97.496727,109.169701 97.509521,110.183891 97.417328,111.573380 
	C91.416084,118.447418 83.175323,121.463173 75.950829,125.998993 
	C67.552429,131.271835 58.778187,135.926666 50.168465,140.850311 
	C47.451164,142.404251 44.560867,144.886002 40.692909,142.158798 
	C40.275558,139.366348 40.228657,136.662979 40.253677,133.518646 
z"/>
<path fill="#339E45" opacity="1.000000" stroke="none" 
	d="
M103.615707,67.999557 
	C94.262939,73.028023 85.381340,78.108849 76.415749,83.036888 
	C64.549232,89.559448 53.365936,97.297279 40.654320,102.958496 
	C40.253162,100.941689 40.198326,98.895897 40.225342,96.418289 
	C44.101952,90.272232 50.627052,88.335121 56.102905,85.206444 
	C69.610756,77.488602 82.882042,69.355293 96.548935,61.915539 
	C99.294983,60.420692 101.955452,58.402821 105.547134,60.823181 
	C106.818260,63.828884 106.524590,66.187393 103.615707,67.999557 
z"/>
<path fill="#3A9C43" opacity="1.000000" stroke="none" 
	d="
M40.249695,142.501572 
	C46.956020,141.505737 51.823795,137.090866 57.262844,134.057709 
	C69.581276,127.188156 81.668907,119.905052 93.868874,112.821960 
	C94.563126,112.418884 95.423271,112.301529 96.567711,112.029068 
	C98.080132,113.757751 97.243614,115.711975 97.486053,117.951981 
	C95.651100,122.734970 91.434212,124.405754 87.778305,126.529655 
	C74.697273,134.129059 61.600330,141.703995 48.414986,149.123352 
	C45.973335,150.497269 43.561367,151.456223 40.696117,149.173370 
	C40.271877,147.038544 40.224403,144.985992 40.249695,142.501572 
z"/>
<path fill="#2A9442" opacity="1.000000" stroke="none" 
	d="
M105.568916,60.861404 
	C98.825066,61.858089 94.003967,66.000557 88.710526,68.979515 
	C72.793686,77.936913 57.331985,87.699852 40.653526,95.956810 
	C40.251003,94.268616 40.194820,92.550758 40.219719,90.410004 
	C47.153393,89.027161 52.251484,84.414818 57.983917,81.235481 
	C73.096001,72.853973 87.970825,64.044464 102.930595,55.388924 
	C104.086502,54.720127 105.146423,53.808910 106.826591,54.923191 
	C108.906120,57.443104 108.017998,59.213104 105.568916,60.861404 
z"/>
<path fill="#379741" opacity="1.000000" stroke="none" 
	d="
M40.243950,149.495056 
	C45.946621,149.383652 49.853680,145.530930 54.258831,143.077820 
	C68.313866,135.250992 82.214478,127.146858 96.514267,119.077255 
	C98.090950,120.654991 97.302063,122.521461 97.134811,124.650558 
	C83.954338,132.417252 71.153168,140.000336 58.113419,147.148193 
	C52.696442,150.117554 47.944286,154.758530 40.760418,154.852295 
	C40.271935,153.175934 40.220242,151.537476 40.243950,149.495056 
z"/>
<path fill="#175027" opacity="1.000000" stroke="none" 
	d="
M105.083801,61.339916 
	C105.764877,59.248055 106.361641,57.526955 107.019539,55.471134 
	C107.962349,53.306702 108.844017,51.476986 109.892677,49.349869 
	C111.700897,51.303848 112.010490,53.889923 112.002075,56.575531 
	C111.981903,63.012222 111.987396,69.449020 111.995682,75.885757 
	C111.998825,78.332756 111.805420,80.625237 108.226120,81.004013 
	C107.219048,80.951454 106.615852,80.842690 105.754028,80.656372 
	C105.349594,80.492661 105.203796,80.406517 104.956589,80.087479 
	C103.982002,79.320938 102.871201,79.466927 101.821823,78.636261 
	C102.122498,75.223999 101.552620,71.886917 103.083923,68.425278 
	C103.787773,65.913689 104.393623,63.812183 105.083801,61.339916 
z"/>
<path fill="#DEE3DF" opacity="1.000000" stroke="none" 
	d="
M96.918617,125.337296 
	C96.897720,123.291382 96.943695,121.573044 96.921738,119.429703 
	C96.927216,116.960556 97.000626,114.916420 97.001633,112.439613 
	C97.040794,111.016289 97.152367,110.025642 97.189499,108.666656 
	C97.160782,108.045212 97.206505,107.792099 97.545517,107.789650 
	C97.885315,114.362175 97.931816,120.684036 97.919853,127.469086 
	C96.721558,127.503998 97.127930,126.478424 96.918617,125.337296 
z"/>
<path fill="#DEE3DF" opacity="1.000000" stroke="none" 
	d="
M101.447357,78.585663 
	C102.556519,78.754120 103.491631,79.099800 104.640953,79.650032 
	C103.695534,79.918991 102.470665,79.786346 101.334816,81.050705 
	C100.684776,80.973656 100.362122,80.757477 99.929268,80.265114 
	C100.303810,79.580246 100.788551,79.171570 101.447357,78.585663 
z"/>
<path fill="#DEE3DF" opacity="1.000000" stroke="none" 
	d="
M97.347885,103.607132 
	C97.456146,103.211021 97.693466,103.120178 97.678535,102.994026 
	C97.883942,101.717262 98.104279,100.566643 98.585861,99.276855 
	C98.817886,100.682701 98.788651,102.227715 98.407074,103.938156 
	C97.783035,104.070137 97.511322,104.036690 97.347885,103.607132 
z"/>
<path fill="#42AF4A" opacity="1.000000" stroke="none" 
	d="
M97.334724,103.712982 
	C97.582405,103.342026 97.708656,103.473022 97.944832,103.853806 
	C98.057831,105.163284 98.060921,106.223000 97.951416,107.661507 
	C97.838814,108.040306 97.469154,108.147537 97.292099,108.222931 
	C97.147804,106.937202 97.180550,105.576073 97.334724,103.712982 
z"/>
<path fill="#DEE3DF" opacity="1.000000" stroke="none" 
	d="
M105.410049,80.594955 
	C105.495399,80.578812 105.363327,80.304138 105.277313,80.311951 
	C105.191292,80.319763 105.324699,80.611107 105.410049,80.594955 
z"/>
</svg>